<svg width="24" height="28" viewBox="0 0 24 28" fill="none" xmlns="http://www.w3.org/2000/svg">
<path d="M20 19.44C18.9867 19.44 18.08 19.84 17.3867 20.4666L7.88 14.9333C7.94667 14.6266 8 14.32 8 14C8 13.68 7.94667 13.3733 7.88 13.0666L17.28 7.58663C18 8.25329 18.9467 8.66663 20 8.66663C21.0609 8.66663 22.0783 8.2452 22.8284 7.49505C23.5786 6.74491 24 5.72749 24 4.66663C24 3.60576 23.5786 2.58834 22.8284 1.8382C22.0783 1.08805 21.0609 0.666626 20 0.666626C18.9391 0.666626 17.9217 1.08805 17.1716 1.8382C16.4214 2.58834 16 3.60576 16 4.66663C16 4.98663 16.0533 5.29329 16.12 5.59996L6.72 11.08C6 10.4133 5.05333 9.99996 4 9.99996C2.93913 9.99996 1.92172 10.4214 1.17157 11.1715C0.421427 11.9217 0 12.9391 0 14C0 15.0608 0.421427 16.0782 1.17157 16.8284C1.92172 17.5785 2.93913 18 4 18C5.05333 18 6 17.5866 6.72 16.92L16.2133 22.4533C16.1467 22.7333 16.1067 23.0266 16.1067 23.3333C16.1067 25.48 17.8533 27.2133 20 27.2133C22.1467 27.2133 23.8933 25.48 23.8933 23.3333C23.8933 22.3007 23.4831 21.3104 22.753 20.5803C22.0229 19.8501 21.0326 19.44 20 19.44Z" fill="#FC691B"/>
</svg>
